<mxfile host="app.diagrams.net" agent="Mozilla/5.0 (Windows NT 10.0; Win64; x64; rv:142.0) Gecko/20100101 Firefox/142.0" version="28.2.2">
  <diagram name="PÃ¡gina-1" id="Q4v2XUulE-g4uzLJDbDY">
    <mxGraphModel dx="786" dy="731" grid="1" gridSize="10" guides="1" tooltips="1" connect="1" arrows="1" fold="1" page="1" pageScale="1" pageWidth="827" pageHeight="1169" math="0" shadow="0">
      <root>
        <mxCell id="0" />
        <mxCell id="1" parent="0" />
        <mxCell id="SLAjVJ8sguU_1z0DU-0T-1" value="D-EBS" style="outlineConnect=0;dashed=0;verticalLabelPosition=bottom;verticalAlign=top;align=center;html=1;shape=mxgraph.aws3.volume;fillColor=#E05243;gradientColor=none;" vertex="1" parent="1">
          <mxGeometry x="230" y="220" width="52.5" height="75" as="geometry" />
        </mxCell>
        <mxCell id="SLAjVJ8sguU_1z0DU-0T-5" value="" style="edgeStyle=orthogonalEdgeStyle;rounded=0;orthogonalLoop=1;jettySize=auto;html=1;" edge="1" parent="1" source="SLAjVJ8sguU_1z0DU-0T-2" target="SLAjVJ8sguU_1z0DU-0T-1">
          <mxGeometry relative="1" as="geometry">
            <Array as="points">
              <mxPoint x="120" y="258" />
            </Array>
          </mxGeometry>
        </mxCell>
        <mxCell id="SLAjVJ8sguU_1z0DU-0T-8" value="envia arquivo" style="edgeLabel;html=1;align=center;verticalAlign=middle;resizable=0;points=[];" vertex="1" connectable="0" parent="SLAjVJ8sguU_1z0DU-0T-5">
          <mxGeometry x="-0.2003" y="1" relative="1" as="geometry">
            <mxPoint as="offset" />
          </mxGeometry>
        </mxCell>
        <mxCell id="SLAjVJ8sguU_1z0DU-0T-2" value="" style="verticalLabelPosition=bottom;aspect=fixed;html=1;shape=mxgraph.salesforce.web;fillColorStyles=fillColor2,fillColor3,fillColor4;fillColor2=#032d60;fillColor3=#0d9dda;fillColor4=#ffffff;fillColor=none;strokeColor=none;" vertex="1" parent="1">
          <mxGeometry x="90" y="506.3" width="60" height="47.4" as="geometry" />
        </mxCell>
        <mxCell id="SLAjVJ8sguU_1z0DU-0T-6" value="" style="edgeStyle=orthogonalEdgeStyle;rounded=0;orthogonalLoop=1;jettySize=auto;html=1;" edge="1" parent="1" source="SLAjVJ8sguU_1z0DU-0T-3" target="SLAjVJ8sguU_1z0DU-0T-2">
          <mxGeometry relative="1" as="geometry" />
        </mxCell>
        <mxCell id="SLAjVJ8sguU_1z0DU-0T-3" value="Actor" style="shape=umlActor;verticalLabelPosition=bottom;verticalAlign=top;html=1;outlineConnect=0;" vertex="1" parent="1">
          <mxGeometry x="330" y="500" width="30" height="60" as="geometry" />
        </mxCell>
        <mxCell id="SLAjVJ8sguU_1z0DU-0T-18" value="" style="edgeStyle=orthogonalEdgeStyle;rounded=0;orthogonalLoop=1;jettySize=auto;html=1;" edge="1" parent="1" source="SLAjVJ8sguU_1z0DU-0T-9" target="SLAjVJ8sguU_1z0DU-0T-1">
          <mxGeometry relative="1" as="geometry" />
        </mxCell>
        <mxCell id="SLAjVJ8sguU_1z0DU-0T-22" value="" style="edgeStyle=orthogonalEdgeStyle;rounded=0;orthogonalLoop=1;jettySize=auto;html=1;" edge="1" parent="1" source="SLAjVJ8sguU_1z0DU-0T-9" target="SLAjVJ8sguU_1z0DU-0T-10">
          <mxGeometry relative="1" as="geometry" />
        </mxCell>
        <mxCell id="SLAjVJ8sguU_1z0DU-0T-24" value="" style="edgeStyle=orthogonalEdgeStyle;rounded=0;orthogonalLoop=1;jettySize=auto;html=1;" edge="1" parent="1" source="SLAjVJ8sguU_1z0DU-0T-9" target="SLAjVJ8sguU_1z0DU-0T-11">
          <mxGeometry relative="1" as="geometry">
            <Array as="points">
              <mxPoint x="540" y="41" />
            </Array>
          </mxGeometry>
        </mxCell>
        <mxCell id="SLAjVJ8sguU_1z0DU-0T-9" value="EC2" style="verticalLabelPosition=bottom;html=1;verticalAlign=top;strokeWidth=1;align=center;outlineConnect=0;dashed=0;outlineConnect=0;shape=mxgraph.aws3d.application_server;fillColor=#ECECEC;strokeColor=#5E5E5E;aspect=fixed;strokeColor2=#292929;" vertex="1" parent="1">
          <mxGeometry x="480" y="195.5" width="123" height="124" as="geometry" />
        </mxCell>
        <mxCell id="SLAjVJ8sguU_1z0DU-0T-10" value="E-EBS" style="outlineConnect=0;dashed=0;verticalLabelPosition=bottom;verticalAlign=top;align=center;html=1;shape=mxgraph.aws3.volume;fillColor=#E05243;gradientColor=none;" vertex="1" parent="1">
          <mxGeometry x="712" y="220" width="52.5" height="75" as="geometry" />
        </mxCell>
        <mxCell id="SLAjVJ8sguU_1z0DU-0T-11" value="" style="outlineConnect=0;dashed=0;verticalLabelPosition=bottom;verticalAlign=top;align=center;html=1;shape=mxgraph.aws3.rds;fillColor=#2E73B8;gradientColor=none;" vertex="1" parent="1">
          <mxGeometry x="700" y="10" width="62" height="81" as="geometry" />
        </mxCell>
        <mxCell id="SLAjVJ8sguU_1z0DU-0T-12" value="aws" style="ellipse;shape=cloud;whiteSpace=wrap;html=1;" vertex="1" parent="1">
          <mxGeometry x="145" y="30" width="120" height="80" as="geometry" />
        </mxCell>
      </root>
    </mxGraphModel>
  </diagram>
</mxfile>
